<svg width="16" height="16" viewBox="0 0 16 16" fill="none" xmlns="http://www.w3.org/2000/svg">
<g clip-path="url(#clip0_946_706)">
<path d="M7.99923 5.61266C7.77851 5.61266 7.56275 5.67926 7.37923 5.80405C7.19572 5.92883 7.05271 6.10618 6.96828 6.31367C6.88385 6.52117 6.8618 6.74947 6.90492 6.96972C6.94804 7.18996 7.0544 7.39224 7.21053 7.55098C7.36666 7.70971 7.56556 7.81777 7.78206 7.86148C7.99856 7.90519 8.22294 7.88258 8.42682 7.79653C8.63069 7.71047 8.8049 7.56483 8.9274 7.37802C9.04991 7.19122 9.11521 6.97164 9.11505 6.74707C9.11505 6.59803 9.08618 6.45044 9.03009 6.31276C8.97401 6.17507 8.89181 6.04997 8.78818 5.94462C8.68456 5.83927 8.56155 5.75573 8.42617 5.69877C8.2908 5.64181 8.14573 5.61255 7.99923 5.61266ZM7.99923 5.61266C7.77851 5.61266 7.56275 5.67926 7.37923 5.80405C7.19572 5.92883 7.05271 6.10618 6.96828 6.31367C6.88385 6.52117 6.8618 6.74947 6.90492 6.96972C6.94804 7.18996 7.0544 7.39224 7.21053 7.55098C7.36666 7.70971 7.56556 7.81777 7.78206 7.86148C7.99856 7.90519 8.22294 7.88258 8.42682 7.79653C8.63069 7.71047 8.8049 7.56483 8.9274 7.37802C9.04991 7.19122 9.11521 6.97164 9.11505 6.74707C9.11505 6.59803 9.08618 6.45044 9.03009 6.31276C8.97401 6.17507 8.89181 6.04997 8.78818 5.94462C8.68456 5.83927 8.56155 5.75573 8.42617 5.69877C8.2908 5.64181 8.14573 5.61255 7.99923 5.61266ZM7.99923 5.61266C7.77851 5.61266 7.56275 5.67926 7.37923 5.80405C7.19572 5.92883 7.05271 6.10618 6.96828 6.31367C6.88385 6.52117 6.8618 6.74947 6.90492 6.96972C6.94804 7.18996 7.0544 7.39224 7.21053 7.55098C7.36666 7.70971 7.56556 7.81777 7.78206 7.86148C7.99856 7.90519 8.22294 7.88258 8.42682 7.79653C8.63069 7.71047 8.8049 7.56483 8.9274 7.37802C9.04991 7.19122 9.11521 6.97164 9.11505 6.74707C9.11505 6.59803 9.08618 6.45044 9.03009 6.31276C8.97401 6.17507 8.89181 6.04997 8.78818 5.94462C8.68456 5.83927 8.56155 5.75573 8.42617 5.69877C8.2908 5.64181 8.14573 5.61255 7.99923 5.61266ZM15.9971 7.95037C15.9971 7.89935 15.9971 7.84917 15.9921 7.799C15.9921 7.80325 15.9921 7.8075 15.9921 7.81176C15.912 5.71072 15.0357 3.72279 13.5468 2.26454C12.058 0.806291 10.0723 -0.00909057 8.00568 -0.0107397C5.93908 -0.0123888 3.95207 0.799822 2.46101 2.25569C0.969947 3.71156 0.0905773 5.69809 0.00717263 7.799C0.00717263 7.85002 0.00717263 7.90105 0.00215774 7.95292C-0.00285715 8.00479 -0.000349701 8.07878 -0.000349701 8.13915C-0.000349701 8.19953 -0.000349701 8.27011 -0.000349701 8.33389C-0.000349701 8.39767 -0.000349702 8.43934 0.00466519 8.49206C0.00968008 8.54479 0.00968008 8.59666 0.0130233 8.64854C0.0122231 8.66014 0.0122231 8.67179 0.0130233 8.6834C0.0130233 8.72762 0.018874 8.77269 0.0222173 8.81691C0.0222173 8.83477 0.0222173 8.85348 0.0272322 8.87134C0.0272322 8.91386 0.0347545 8.95638 0.0389336 8.99889C0.0573215 9.17577 0.0807243 9.35095 0.110814 9.52443C0.119172 9.57716 0.128366 9.62988 0.138396 9.68175C0.138033 9.68372 0.138033 9.68574 0.138396 9.68771C0.148425 9.74213 0.159291 9.79571 0.170157 9.84928C0.181022 9.90285 0.190216 9.94367 0.201082 9.99044C0.211947 10.0372 0.218634 10.0653 0.227828 10.1027C0.247051 10.1877 0.267947 10.2634 0.290514 10.3434C0.304723 10.3961 0.319767 10.448 0.335648 10.4998C0.335648 10.4998 0.335648 10.5041 0.335648 10.5058L0.380782 10.6299C0.394991 10.6767 0.410871 10.7235 0.426752 10.7702C0.442632 10.817 0.456841 10.8621 0.473557 10.9072C0.575921 11.1959 0.694524 11.4784 0.828779 11.7533C0.848838 11.795 0.869734 11.8383 0.890629 11.8766C0.897315 11.8918 0.90485 11.9065 0.913196 11.9208C0.95833 12.0059 1.00514 12.0951 1.05278 12.1802C1.07952 12.2278 1.10711 12.2754 1.13636 12.3222L1.20907 12.443C1.24251 12.4991 1.27761 12.5544 1.31355 12.6088C1.34949 12.6632 1.36871 12.6938 1.39713 12.7363C1.4874 12.8724 1.5824 13.0051 1.68215 13.1343C1.71474 13.1777 1.74817 13.2194 1.78244 13.2627L1.87104 13.3724L1.89779 13.4047C1.92871 13.4413 1.9588 13.477 1.98973 13.5119C2.02065 13.5468 2.07331 13.6054 2.11343 13.6522C2.21707 13.7656 2.32349 13.8767 2.43271 13.9856C2.54805 14.0995 2.66674 14.2092 2.78876 14.3164C2.87235 14.3869 2.95593 14.4567 3.03951 14.5247L3.16321 14.6267L3.29276 14.7245L3.42649 14.8164C3.60201 14.9417 3.78311 15.0596 3.96977 15.1701L4.11019 15.2552L4.25228 15.3343C4.49132 15.4624 4.73677 15.5792 4.98863 15.6846C5.08976 15.7263 5.19173 15.7654 5.29454 15.8037C5.50015 15.8785 5.71244 15.9457 5.92307 16.0035C5.96653 15.7813 6.01501 15.5673 6.0685 15.3615C6.48641 13.7457 7.19685 12.6794 8.00174 12.6794C8.80663 12.6794 9.5154 13.7423 9.93498 15.3615C9.9907 15.5673 10.0392 15.7813 10.0804 16.0035C10.4721 15.8969 10.8552 15.7599 11.2263 15.5936C11.3183 15.552 11.4094 15.5086 11.4996 15.4644C11.5899 15.4202 11.6785 15.3734 11.7671 15.3258L11.8983 15.2526C12.0293 15.1778 12.158 15.0998 12.2845 15.0188C12.4109 14.9377 12.5346 14.8527 12.6556 14.7637C12.7391 14.7041 12.816 14.6438 12.8946 14.5825C13.091 14.4278 13.2807 14.2636 13.4613 14.0919C13.6067 13.9541 13.7463 13.8104 13.8792 13.6667C13.9135 13.6292 13.9461 13.5918 13.9795 13.5544L14.0773 13.4405C14.1416 13.3639 14.2052 13.2857 14.267 13.2066C14.2929 13.1743 14.318 13.1411 14.3431 13.108L14.3773 13.062L14.4358 12.983C14.4701 12.937 14.5027 12.8903 14.5353 12.8426C14.588 12.767 14.6398 12.6904 14.6899 12.613C14.7217 12.5637 14.7535 12.5135 14.7835 12.4634C14.837 12.3783 14.888 12.2933 14.9382 12.2023C14.9632 12.1581 14.9883 12.1173 15.0117 12.0696C15.0351 12.022 15.0569 11.9846 15.0786 11.9429L15.0861 11.9293C15.1078 11.886 15.1304 11.8443 15.1513 11.7992C15.1973 11.7082 15.2407 11.6164 15.2817 11.5228C15.2976 11.488 15.3126 11.454 15.3277 11.4182C15.4154 11.2167 15.4948 11.0101 15.565 10.8C15.5809 10.7541 15.596 10.709 15.611 10.6622C15.6269 10.6138 15.6419 10.5653 15.657 10.516C15.657 10.516 15.657 10.516 15.657 10.5109C15.6703 10.4633 15.6846 10.4148 15.6979 10.3663C15.7255 10.2677 15.7506 10.169 15.7748 10.0695V10.0585C15.784 10.0202 15.7924 9.98109 15.8016 9.94197C15.8158 9.87734 15.8291 9.81186 15.8425 9.74638C15.8709 9.59842 15.8957 9.44903 15.9169 9.29823V9.27782C15.9236 9.22935 15.9294 9.18173 15.9353 9.13326C15.9411 9.08478 15.9478 9.02696 15.9528 8.97423C15.957 8.93427 15.9604 8.8943 15.9637 8.85348C15.9637 8.82712 15.9687 8.80075 15.9704 8.77524C15.9704 8.72592 15.9771 8.67575 15.9796 8.62643C15.9896 8.46825 15.9938 8.30923 15.9938 8.14851C15.9977 8.07934 15.9988 8.0133 15.9971 7.95037ZM7.99923 11.5841C6.33931 11.5841 4.86242 12.2329 3.91962 13.2398C3.69151 12.7177 3.57364 12.1528 3.57364 11.5815C3.57364 11.0102 3.69151 10.4453 3.91962 9.92326C4.14445 9.41327 4.46532 8.95305 4.86409 8.5686C4.86409 4.02159 7.9984 1.67453 7.9984 1.67453C7.9984 1.67453 11.1327 4.02159 11.1327 8.5686C11.5383 8.9548 11.8621 9.42127 12.0842 9.93937C12.3063 10.4575 12.4219 11.0163 12.424 11.5815C12.4244 12.1522 12.3068 12.7166 12.0788 13.2381C11.136 12.2329 9.66 11.5841 7.99923 11.5841ZM7.99923 5.61521C7.77851 5.61521 7.56275 5.68181 7.37923 5.8066C7.19572 5.93138 7.05271 6.10873 6.96828 6.31623C6.88385 6.52372 6.8618 6.75202 6.90492 6.97227C6.94804 7.19251 7.0544 7.39479 7.21053 7.55353C7.36666 7.71227 7.56556 7.82032 7.78206 7.86403C7.99856 7.90774 8.22294 7.88514 8.42682 7.79908C8.63069 7.71302 8.8049 7.56738 8.9274 7.38058C9.04991 7.19377 9.11521 6.9742 9.11505 6.74963C9.11538 6.60037 9.08675 6.45251 9.03082 6.31452C8.97488 6.17654 8.89273 6.05114 8.78907 5.94552C8.68541 5.8399 8.56229 5.75613 8.42675 5.69901C8.29122 5.64189 8.14594 5.61255 7.99923 5.61266V5.61521ZM7.99923 5.61521C7.77851 5.61521 7.56275 5.68181 7.37923 5.8066C7.19572 5.93138 7.05271 6.10873 6.96828 6.31623C6.88385 6.52372 6.8618 6.75202 6.90492 6.97227C6.94804 7.19251 7.0544 7.39479 7.21053 7.55353C7.36666 7.71227 7.56556 7.82032 7.78206 7.86403C7.99856 7.90774 8.22294 7.88514 8.42682 7.79908C8.63069 7.71302 8.8049 7.56738 8.9274 7.38058C9.04991 7.19377 9.11521 6.9742 9.11505 6.74963C9.11538 6.60037 9.08675 6.45251 9.03082 6.31452C8.97488 6.17654 8.89273 6.05114 8.78907 5.94552C8.68541 5.8399 8.56229 5.75613 8.42675 5.69901C8.29122 5.64189 8.14594 5.61255 7.99923 5.61266V5.61521ZM7.99923 5.61521C7.77851 5.61521 7.56275 5.68181 7.37923 5.8066C7.19572 5.93138 7.05271 6.10873 6.96828 6.31623C6.88385 6.52372 6.8618 6.75202 6.90492 6.97227C6.94804 7.19251 7.0544 7.39479 7.21053 7.55353C7.36666 7.71227 7.56556 7.82032 7.78206 7.86403C7.99856 7.90774 8.22294 7.88514 8.42682 7.79908C8.63069 7.71302 8.8049 7.56738 8.9274 7.38058C9.04991 7.19377 9.11521 6.9742 9.11505 6.74963C9.11538 6.60037 9.08675 6.45251 9.03082 6.31452C8.97488 6.17654 8.89273 6.05114 8.78907 5.94552C8.68541 5.8399 8.56229 5.75613 8.42675 5.69901C8.29122 5.64189 8.14594 5.61255 7.99923 5.61266V5.61521ZM7.99923 5.61521C7.77851 5.61521 7.56275 5.68181 7.37923 5.8066C7.19572 5.93138 7.05271 6.10873 6.96828 6.31623C6.88385 6.52372 6.8618 6.75202 6.90492 6.97227C6.94804 7.19251 7.0544 7.39479 7.21053 7.55353C7.36666 7.71227 7.56556 7.82032 7.78206 7.86403C7.99856 7.90774 8.22294 7.88514 8.42682 7.79908C8.63069 7.71302 8.8049 7.56738 8.9274 7.38058C9.04991 7.19377 9.11521 6.9742 9.11505 6.74963C9.11538 6.60037 9.08675 6.45251 9.03082 6.31452C8.97488 6.17654 8.89273 6.05114 8.78907 5.94552C8.68541 5.8399 8.56229 5.75613 8.42675 5.69901C8.29122 5.64189 8.14594 5.61255 7.99923 5.61266V5.61521Z" fill="white"/>
</g>
<defs>
<clipPath id="clip0_946_706">
<rect width="16" height="16" fill="white"/>
</clipPath>
</defs>
</svg>
